<?xml version="1.0" standalone="no"?>
<!DOCTYPE svg PUBLIC "-//W3C//DTD SVG 20010904//EN"
 "http://www.w3.org/TR/2001/REC-SVG-20010904/DTD/svg10.dtd">
<svg version="1.0" xmlns="http://www.w3.org/2000/svg"
 width="700.000000pt" height="700.000000pt" viewBox="0 0 700.000000 700.000000"
 preserveAspectRatio="xMidYMid meet">
<metadata>
Created by potrace 1.14, written by Peter Selinger 2001-2017
</metadata>
<g transform="translate(0.000000,700.000000) scale(0.100000,-0.100000)"
fill="#000000" stroke="none">
<path d="M3639 5386 c-2 -2 -35 -6 -74 -10 -128 -11 -238 -30 -373 -62 -37 -8
-76 -17 -88 -20 -107 -21 -417 -144 -574 -227 -258 -136 -448 -276 -665 -490
-456 -447 -745 -1032 -820 -1656 -3 -25 -7 -46 -8 -48 -5 -5 -153 41 -257 80
-113 43 -226 97 -333 161 -44 25 -83 44 -88 40 -5 -3 -9 -140 -9 -317 l0 -312
53 -24 c116 -53 273 -111 389 -145 129 -37 228 -61 241 -58 4 1 7 -8 8 -21 0
-12 2 -33 5 -47 8 -51 25 -156 30 -185 10 -65 55 -240 84 -330 l31 -95 304 0
305 0 -10 25 c-5 14 -16 38 -24 53 -25 49 -87 235 -111 337 -26 110 -45 199
-42 202 1 1 54 4 117 7 234 13 509 61 679 119 l43 15 -7 -41 c-14 -78 -13
-310 0 -407 8 -52 26 -135 41 -185 14 -49 29 -98 31 -108 5 -16 29 -17 325
-17 l320 1 -16 22 c-52 74 -118 222 -132 300 -21 118 -25 211 -11 307 42 292
241 544 517 658 208 85 458 81 663 -11 177 -80 329 -228 412 -402 124 -260
108 -577 -42 -812 -18 -29 -33 -55 -33 -58 0 -3 141 -5 314 -4 l314 0 15 42
c139 381 91 856 -119 1185 -19 29 -34 56 -34 61 0 5 -3 11 -7 13 -5 2 -28 30
-52 63 -111 149 -300 306 -478 396 -150 76 -364 138 -510 148 -7 1 11 38 39
84 104 166 224 439 283 643 28 96 70 281 80 354 3 25 8 52 10 60 2 8 5 32 7
53 1 20 5 37 8 37 3 0 34 -9 70 -21 36 -11 72 -22 80 -23 9 -2 56 -20 106 -39
433 -167 810 -470 1067 -859 123 -186 209 -368 276 -584 32 -104 40 -138 65
-279 30 -164 39 -406 23 -590 -7 -76 -9 -93 -23 -175 -13 -73 -15 -87 -31
-145 -8 -33 -16 -67 -18 -75 -5 -22 -44 -141 -54 -165 -25 -58 -71 -175 -71
-180 0 -3 136 -4 303 -3 l302 3 23 70 c31 94 79 279 87 335 4 24 8 47 10 50 2
3 6 30 10 60 3 30 8 62 10 70 27 104 27 592 0 740 -3 14 -7 45 -10 70 -6 58
-41 216 -67 304 -11 38 -21 76 -23 85 -18 86 -194 489 -257 586 -7 11 -45 69
-84 130 -151 233 -370 474 -600 658 -243 194 -617 392 -904 478 -151 45 -214
62 -288 75 -227 40 -287 46 -523 50 -125 2 -228 2 -230 0z m183 -591 c-4 -36
-29 -192 -36 -220 -28 -122 -41 -167 -67 -242 -202 -577 -596 -1026 -1139
-1299 -60 -30 -115 -54 -122 -54 -8 0 -18 -4 -23 -9 -23 -22 -298 -106 -410
-125 -16 -3 -41 -8 -55 -10 -68 -13 -170 -24 -282 -31 l-88 -5 6 53 c16 169
75 394 148 574 149 363 396 687 706 929 191 148 425 274 659 353 96 33 264 76
336 86 23 3 52 8 65 10 14 3 61 8 105 11 44 4 81 7 82 8 2 1 29 2 60 2 l58 -1
-3 -30z"/>
<path d="M2335 3740 c-140 -54 -213 -199 -172 -341 27 -91 87 -154 179 -186
50 -18 155 -20 171 -4 6 6 17 11 25 11 30 0 109 70 138 122 26 47 29 63 29
138 0 74 -3 91 -27 131 -73 123 -217 178 -343 129z"/>
</g>
</svg>
